<mxfile host="app.diagrams.net" modified="2023-03-27T13:44:26.227Z" agent="Mozilla/5.0 (Macintosh; Intel Mac OS X 10_15_7) AppleWebKit/537.36 (KHTML, like Gecko) Chrome/111.0.0.0 Safari/537.36" etag="MgJV2CZ-gtDhvAca5RTi" version="21.1.1" type="github">
  <diagram name="第 1 页" id="3ekTtO09td6I2QyxoWbA">
    <mxGraphModel dx="1306" dy="740" grid="1" gridSize="10" guides="1" tooltips="1" connect="1" arrows="1" fold="1" page="1" pageScale="1" pageWidth="827" pageHeight="1169" math="0" shadow="0">
      <root>
        <mxCell id="0" />
        <mxCell id="1" parent="0" />
        <mxCell id="S5WVxqrFyPBs2DXpXE_U-1" value="TKEX_REGION" style="rounded=1;whiteSpace=wrap;html=1;fillColor=none;strokeColor=#9673a6;strokeWidth=1.5;" vertex="1" parent="1">
          <mxGeometry x="50" y="210" width="90" height="40" as="geometry" />
        </mxCell>
        <mxCell id="S5WVxqrFyPBs2DXpXE_U-2" value="" style="shape=curlyBracket;whiteSpace=wrap;html=1;rounded=1;labelPosition=left;verticalLabelPosition=middle;align=right;verticalAlign=middle;strokeWidth=1.5;" vertex="1" parent="1">
          <mxGeometry x="147" y="60" width="20" height="340" as="geometry" />
        </mxCell>
        <mxCell id="S5WVxqrFyPBs2DXpXE_U-3" value="区域未配置" style="rounded=1;whiteSpace=wrap;html=1;fillColor=none;strokeColor=#9673a6;strokeWidth=1.5;" vertex="1" parent="1">
          <mxGeometry x="175" y="45" width="70" height="30" as="geometry" />
        </mxCell>
        <mxCell id="S5WVxqrFyPBs2DXpXE_U-5" value="" style="endArrow=classic;html=1;rounded=0;strokeWidth=1.5;exitX=1;exitY=0.5;exitDx=0;exitDy=0;" edge="1" parent="1" source="S5WVxqrFyPBs2DXpXE_U-3">
          <mxGeometry width="50" height="50" relative="1" as="geometry">
            <mxPoint x="390" y="190" as="sourcePoint" />
            <mxPoint x="280" y="60" as="targetPoint" />
          </mxGeometry>
        </mxCell>
        <mxCell id="S5WVxqrFyPBs2DXpXE_U-6" value="中国区域列表" style="rounded=1;whiteSpace=wrap;html=1;fillColor=none;strokeColor=none;strokeWidth=1.5;sketch=1;curveFitting=1;jiggle=2;" vertex="1" parent="1">
          <mxGeometry x="583" width="90" height="40" as="geometry" />
        </mxCell>
        <mxCell id="S5WVxqrFyPBs2DXpXE_U-7" value="海外区域列表" style="rounded=1;whiteSpace=wrap;html=1;fillColor=none;strokeColor=none;strokeWidth=1.5;sketch=1;curveFitting=1;jiggle=2;" vertex="1" parent="1">
          <mxGeometry x="584" y="80" width="90" height="40" as="geometry" />
        </mxCell>
        <mxCell id="S5WVxqrFyPBs2DXpXE_U-8" value="配置项1" style="rounded=1;whiteSpace=wrap;html=1;fillColor=#d0cee2;strokeColor=#56517e;strokeWidth=1.5;shadow=0;sketch=1;curveFitting=1;jiggle=2;" vertex="1" parent="1">
          <mxGeometry x="500" y="45" width="60" height="30" as="geometry" />
        </mxCell>
        <mxCell id="S5WVxqrFyPBs2DXpXE_U-9" value="" style="shape=curlyBracket;whiteSpace=wrap;html=1;rounded=1;labelPosition=left;verticalLabelPosition=middle;align=right;verticalAlign=middle;strokeWidth=1.5;" vertex="1" parent="1">
          <mxGeometry x="565" y="20" width="20" height="80" as="geometry" />
        </mxCell>
        <mxCell id="S5WVxqrFyPBs2DXpXE_U-11" value="" style="shape=curlyBracket;whiteSpace=wrap;html=1;rounded=1;labelPosition=left;verticalLabelPosition=middle;align=right;verticalAlign=middle;strokeWidth=1.5;" vertex="1" parent="1">
          <mxGeometry x="254" y="295" width="20" height="210" as="geometry" />
        </mxCell>
        <mxCell id="S5WVxqrFyPBs2DXpXE_U-13" value="进程退出" style="rounded=1;whiteSpace=wrap;html=1;fillColor=none;strokeColor=#9673a6;strokeWidth=1.5;" vertex="1" parent="1">
          <mxGeometry x="280" y="45" width="70" height="30" as="geometry" />
        </mxCell>
        <mxCell id="S5WVxqrFyPBs2DXpXE_U-16" value="区域已配置" style="rounded=1;whiteSpace=wrap;html=1;fillColor=none;strokeColor=#b85450;strokeWidth=1.5;" vertex="1" parent="1">
          <mxGeometry x="175" y="385" width="70" height="30" as="geometry" />
        </mxCell>
        <mxCell id="S5WVxqrFyPBs2DXpXE_U-17" value="会议ID编码" style="rounded=1;whiteSpace=wrap;html=1;fillColor=none;strokeColor=#b85450;strokeWidth=1.5;" vertex="1" parent="1">
          <mxGeometry x="280" y="280" width="70" height="30" as="geometry" />
        </mxCell>
        <mxCell id="S5WVxqrFyPBs2DXpXE_U-18" value="会议ID解码" style="rounded=1;whiteSpace=wrap;html=1;fillColor=none;strokeColor=#b85450;strokeWidth=1.5;" vertex="1" parent="1">
          <mxGeometry x="280" y="490" width="70" height="30" as="geometry" />
        </mxCell>
        <mxCell id="S5WVxqrFyPBs2DXpXE_U-19" value="&lt;font color=&quot;#1a1a1a&quot;&gt;预定会议&lt;/font&gt;" style="rounded=1;whiteSpace=wrap;html=1;fillColor=#60a917;strokeColor=#2D7600;strokeWidth=1.5;sketch=1;curveFitting=1;jiggle=2;fontColor=#ffffff;" vertex="1" parent="1">
          <mxGeometry x="320" y="190" width="70" height="30" as="geometry" />
        </mxCell>
        <mxCell id="S5WVxqrFyPBs2DXpXE_U-20" value="" style="curved=1;endArrow=classic;html=1;rounded=0;exitX=0.5;exitY=0;exitDx=0;exitDy=0;entryX=0.25;entryY=1;entryDx=0;entryDy=0;dashed=1;sketch=1;curveFitting=1;jiggle=2;fillColor=#60a917;strokeColor=#2D7600;" edge="1" parent="1" source="S5WVxqrFyPBs2DXpXE_U-17" target="S5WVxqrFyPBs2DXpXE_U-19">
          <mxGeometry width="50" height="50" relative="1" as="geometry">
            <mxPoint x="390" y="360" as="sourcePoint" />
            <mxPoint x="340" y="220" as="targetPoint" />
            <Array as="points">
              <mxPoint x="320" y="250" />
            </Array>
          </mxGeometry>
        </mxCell>
        <mxCell id="S5WVxqrFyPBs2DXpXE_U-22" value="企业/个人" style="rounded=1;whiteSpace=wrap;html=1;fillColor=none;strokeColor=#b85450;strokeWidth=1.5;" vertex="1" parent="1">
          <mxGeometry x="390" y="280" width="70" height="30" as="geometry" />
        </mxCell>
        <mxCell id="S5WVxqrFyPBs2DXpXE_U-23" value="" style="endArrow=classic;html=1;rounded=0;strokeWidth=1.5;exitX=1;exitY=0.5;exitDx=0;exitDy=0;" edge="1" parent="1">
          <mxGeometry width="50" height="50" relative="1" as="geometry">
            <mxPoint x="352" y="294.5" as="sourcePoint" />
            <mxPoint x="387" y="294.5" as="targetPoint" />
          </mxGeometry>
        </mxCell>
        <mxCell id="S5WVxqrFyPBs2DXpXE_U-24" value="[REGION#corp，code]" style="rounded=1;whiteSpace=wrap;html=1;fillColor=none;strokeColor=none;strokeWidth=1.5;sketch=1;curveFitting=1;jiggle=2;" vertex="1" parent="1">
          <mxGeometry x="1168" y="220" width="127" height="40" as="geometry" />
        </mxCell>
        <mxCell id="S5WVxqrFyPBs2DXpXE_U-26" value="配置项2" style="rounded=1;whiteSpace=wrap;html=1;fillColor=#d0cee2;strokeColor=#56517e;strokeWidth=1.5;shadow=0;sketch=1;curveFitting=1;jiggle=2;" vertex="1" parent="1">
          <mxGeometry x="880" y="306" width="60" height="30" as="geometry" />
        </mxCell>
        <mxCell id="S5WVxqrFyPBs2DXpXE_U-27" value="" style="shape=curlyBracket;whiteSpace=wrap;html=1;rounded=1;labelPosition=left;verticalLabelPosition=middle;align=right;verticalAlign=middle;strokeWidth=1.5;" vertex="1" parent="1">
          <mxGeometry x="1050" y="271" width="20" height="100" as="geometry" />
        </mxCell>
        <mxCell id="S5WVxqrFyPBs2DXpXE_U-28" value="读取Code" style="rounded=1;whiteSpace=wrap;html=1;fillColor=none;strokeColor=#b85450;strokeWidth=1.5;" vertex="1" parent="1">
          <mxGeometry x="500" y="280" width="70" height="30" as="geometry" />
        </mxCell>
        <mxCell id="S5WVxqrFyPBs2DXpXE_U-29" value="" style="endArrow=classic;html=1;rounded=0;strokeWidth=1.5;exitX=1;exitY=0.5;exitDx=0;exitDy=0;" edge="1" parent="1">
          <mxGeometry width="50" height="50" relative="1" as="geometry">
            <mxPoint x="462" y="294.5" as="sourcePoint" />
            <mxPoint x="497" y="294.5" as="targetPoint" />
          </mxGeometry>
        </mxCell>
        <mxCell id="S5WVxqrFyPBs2DXpXE_U-30" value="存在成功" style="rounded=1;whiteSpace=wrap;html=1;fillColor=none;strokeColor=#b85450;strokeWidth=1.5;" vertex="1" parent="1">
          <mxGeometry x="605" y="250" width="70" height="30" as="geometry" />
        </mxCell>
        <mxCell id="S5WVxqrFyPBs2DXpXE_U-31" value="" style="shape=curlyBracket;whiteSpace=wrap;html=1;rounded=1;labelPosition=left;verticalLabelPosition=middle;align=right;verticalAlign=middle;strokeWidth=1.5;" vertex="1" parent="1">
          <mxGeometry x="577" y="265" width="20" height="60" as="geometry" />
        </mxCell>
        <mxCell id="S5WVxqrFyPBs2DXpXE_U-32" value="不存在" style="rounded=1;whiteSpace=wrap;html=1;fillColor=none;strokeColor=#b85450;strokeWidth=1.5;" vertex="1" parent="1">
          <mxGeometry x="605" y="310" width="70" height="30" as="geometry" />
        </mxCell>
        <mxCell id="S5WVxqrFyPBs2DXpXE_U-41" value="[REGION#person，code]" style="rounded=1;whiteSpace=wrap;html=1;fillColor=none;strokeColor=none;strokeWidth=1.5;sketch=1;curveFitting=1;jiggle=2;" vertex="1" parent="1">
          <mxGeometry x="1168" y="271" width="145" height="40" as="geometry" />
        </mxCell>
        <mxCell id="S5WVxqrFyPBs2DXpXE_U-46" value="&lt;font color=&quot;#1a1a1a&quot;&gt;参数&lt;/font&gt;" style="rounded=1;whiteSpace=wrap;html=1;fillColor=#60a917;strokeColor=#2D7600;strokeWidth=1.5;sketch=1;curveFitting=1;jiggle=2;fontColor=#ffffff;" vertex="1" parent="1">
          <mxGeometry x="430" y="205" width="70" height="30" as="geometry" />
        </mxCell>
        <mxCell id="S5WVxqrFyPBs2DXpXE_U-47" value="" style="curved=1;endArrow=classic;html=1;rounded=0;exitX=0.5;exitY=0;exitDx=0;exitDy=0;entryX=0.25;entryY=1;entryDx=0;entryDy=0;dashed=1;sketch=1;curveFitting=1;jiggle=2;fillColor=#60a917;strokeColor=#2D7600;" edge="1" parent="1" source="S5WVxqrFyPBs2DXpXE_U-22" target="S5WVxqrFyPBs2DXpXE_U-46">
          <mxGeometry width="50" height="50" relative="1" as="geometry">
            <mxPoint x="325" y="290" as="sourcePoint" />
            <mxPoint x="348" y="230" as="targetPoint" />
            <Array as="points" />
          </mxGeometry>
        </mxCell>
        <mxCell id="S5WVxqrFyPBs2DXpXE_U-48" value="" style="shape=curlyBracket;whiteSpace=wrap;html=1;rounded=1;labelPosition=left;verticalLabelPosition=middle;align=right;verticalAlign=middle;strokeWidth=1.5;" vertex="1" parent="1">
          <mxGeometry x="470" y="447.5" width="20" height="115" as="geometry" />
        </mxCell>
        <mxCell id="S5WVxqrFyPBs2DXpXE_U-50" value="根据code查找redis" style="rounded=1;whiteSpace=wrap;html=1;fillColor=none;strokeColor=#b85450;strokeWidth=1.5;" vertex="1" parent="1">
          <mxGeometry x="390" y="490" width="70" height="30" as="geometry" />
        </mxCell>
        <mxCell id="S5WVxqrFyPBs2DXpXE_U-51" value="" style="endArrow=classic;html=1;rounded=0;strokeWidth=1.5;exitX=1;exitY=0.5;exitDx=0;exitDy=0;" edge="1" parent="1">
          <mxGeometry width="50" height="50" relative="1" as="geometry">
            <mxPoint x="352" y="504.5" as="sourcePoint" />
            <mxPoint x="387" y="504.5" as="targetPoint" />
          </mxGeometry>
        </mxCell>
        <mxCell id="S5WVxqrFyPBs2DXpXE_U-52" value="存在成功" style="rounded=1;whiteSpace=wrap;html=1;fillColor=none;strokeColor=#b85450;strokeWidth=1.5;" vertex="1" parent="1">
          <mxGeometry x="499" y="432" width="70" height="30" as="geometry" />
        </mxCell>
        <mxCell id="S5WVxqrFyPBs2DXpXE_U-53" value="不存在" style="rounded=1;whiteSpace=wrap;html=1;fillColor=none;strokeColor=#b85450;strokeWidth=1.5;" vertex="1" parent="1">
          <mxGeometry x="499" y="550" width="70" height="30" as="geometry" />
        </mxCell>
        <mxCell id="S5WVxqrFyPBs2DXpXE_U-54" value="" style="shape=curlyBracket;whiteSpace=wrap;html=1;rounded=1;labelPosition=left;verticalLabelPosition=middle;align=right;verticalAlign=middle;strokeWidth=1.5;" vertex="1" parent="1">
          <mxGeometry x="577" y="507.5" width="20" height="115" as="geometry" />
        </mxCell>
        <mxCell id="S5WVxqrFyPBs2DXpXE_U-55" value="无兜底失败" style="rounded=1;whiteSpace=wrap;html=1;fillColor=none;strokeColor=#b85450;strokeWidth=1.5;" vertex="1" parent="1">
          <mxGeometry x="603" y="490" width="70" height="30" as="geometry" />
        </mxCell>
        <mxCell id="S5WVxqrFyPBs2DXpXE_U-56" value="有兜底" style="rounded=1;whiteSpace=wrap;html=1;fillColor=none;strokeColor=#b85450;strokeWidth=1.5;" vertex="1" parent="1">
          <mxGeometry x="605" y="608" width="70" height="30" as="geometry" />
        </mxCell>
        <mxCell id="S5WVxqrFyPBs2DXpXE_U-57" value="" style="shape=curlyBracket;whiteSpace=wrap;html=1;rounded=1;labelPosition=left;verticalLabelPosition=middle;align=right;verticalAlign=middle;strokeWidth=1.5;" vertex="1" parent="1">
          <mxGeometry x="680" y="587.25" width="20" height="71.5" as="geometry" />
        </mxCell>
        <mxCell id="S5WVxqrFyPBs2DXpXE_U-58" value="海外兜底" style="rounded=1;whiteSpace=wrap;html=1;fillColor=none;strokeColor=#b85450;strokeWidth=1.5;" vertex="1" parent="1">
          <mxGeometry x="710" y="570" width="70" height="30" as="geometry" />
        </mxCell>
        <mxCell id="S5WVxqrFyPBs2DXpXE_U-59" value="中国兜底" style="rounded=1;whiteSpace=wrap;html=1;fillColor=none;strokeColor=#b85450;strokeWidth=1.5;" vertex="1" parent="1">
          <mxGeometry x="710" y="643" width="70" height="30" as="geometry" />
        </mxCell>
        <mxCell id="S5WVxqrFyPBs2DXpXE_U-60" value="海外兜底配置" style="rounded=1;whiteSpace=wrap;html=1;fillColor=none;strokeColor=none;strokeWidth=1.5;sketch=1;curveFitting=1;jiggle=2;" vertex="1" parent="1">
          <mxGeometry x="898.5" y="555" width="127" height="40" as="geometry" />
        </mxCell>
        <mxCell id="S5WVxqrFyPBs2DXpXE_U-61" value="配置项4" style="rounded=1;whiteSpace=wrap;html=1;fillColor=#d0cee2;strokeColor=#56517e;strokeWidth=1.5;shadow=0;sketch=1;curveFitting=1;jiggle=2;" vertex="1" parent="1">
          <mxGeometry x="832" y="609.75" width="60" height="30" as="geometry" />
        </mxCell>
        <mxCell id="S5WVxqrFyPBs2DXpXE_U-62" value="" style="shape=curlyBracket;whiteSpace=wrap;html=1;rounded=1;labelPosition=left;verticalLabelPosition=middle;align=right;verticalAlign=middle;strokeWidth=1.5;" vertex="1" parent="1">
          <mxGeometry x="897" y="574.75" width="20" height="100" as="geometry" />
        </mxCell>
        <mxCell id="S5WVxqrFyPBs2DXpXE_U-68" value="[code，redis]" style="rounded=1;whiteSpace=wrap;html=1;fillColor=none;strokeColor=none;strokeWidth=1.5;sketch=1;curveFitting=1;jiggle=2;" vertex="1" parent="1">
          <mxGeometry x="1380" y="282.5" width="127" height="40" as="geometry" />
        </mxCell>
        <mxCell id="S5WVxqrFyPBs2DXpXE_U-69" value="配置项3" style="rounded=1;whiteSpace=wrap;html=1;fillColor=#d0cee2;strokeColor=#56517e;strokeWidth=1.5;shadow=0;sketch=1;curveFitting=1;jiggle=2;" vertex="1" parent="1">
          <mxGeometry x="1320" y="339.5" width="60" height="30" as="geometry" />
        </mxCell>
        <mxCell id="S5WVxqrFyPBs2DXpXE_U-70" value="" style="shape=curlyBracket;whiteSpace=wrap;html=1;rounded=1;labelPosition=left;verticalLabelPosition=middle;align=right;verticalAlign=middle;strokeWidth=1.5;" vertex="1" parent="1">
          <mxGeometry x="1385" y="303.5" width="20" height="100" as="geometry" />
        </mxCell>
        <mxCell id="S5WVxqrFyPBs2DXpXE_U-76" value="redis主备" style="rounded=1;whiteSpace=wrap;html=1;fillColor=none;strokeColor=none;strokeWidth=1.5;sketch=1;curveFitting=1;jiggle=2;" vertex="1" parent="1">
          <mxGeometry x="1372" y="381.5" width="127" height="40" as="geometry" />
        </mxCell>
        <mxCell id="S5WVxqrFyPBs2DXpXE_U-77" value="中国兜底配置" style="rounded=1;whiteSpace=wrap;html=1;fillColor=none;strokeColor=none;strokeWidth=1.5;sketch=1;curveFitting=1;jiggle=2;" vertex="1" parent="1">
          <mxGeometry x="901" y="654" width="127" height="40" as="geometry" />
        </mxCell>
        <mxCell id="S5WVxqrFyPBs2DXpXE_U-78" value="广州企业" style="rounded=1;whiteSpace=wrap;html=1;fillColor=none;strokeColor=none;strokeWidth=1.5;sketch=1;curveFitting=1;jiggle=2;" vertex="1" parent="1">
          <mxGeometry x="995" y="654" width="127" height="40" as="geometry" />
        </mxCell>
        <mxCell id="S5WVxqrFyPBs2DXpXE_U-79" value="新加坡企业" style="rounded=1;whiteSpace=wrap;html=1;fillColor=none;strokeColor=none;strokeWidth=1.5;sketch=1;curveFitting=1;jiggle=2;" vertex="1" parent="1">
          <mxGeometry x="995" y="555" width="127" height="40" as="geometry" />
        </mxCell>
        <mxCell id="S5WVxqrFyPBs2DXpXE_U-80" value="异地" style="rounded=1;whiteSpace=wrap;html=1;fillColor=none;strokeColor=none;strokeWidth=1.5;sketch=1;curveFitting=1;jiggle=2;" vertex="1" parent="1">
          <mxGeometry x="112" y="574.75" width="90" height="40" as="geometry" />
        </mxCell>
        <mxCell id="S5WVxqrFyPBs2DXpXE_U-81" value="PSTN" style="rounded=1;whiteSpace=wrap;html=1;fillColor=none;strokeColor=none;strokeWidth=1.5;sketch=1;curveFitting=1;jiggle=2;" vertex="1" parent="1">
          <mxGeometry x="112" y="603" width="90" height="40" as="geometry" />
        </mxCell>
        <mxCell id="S5WVxqrFyPBs2DXpXE_U-82" value="上海或北京的workload" style="rounded=1;whiteSpace=wrap;html=1;fillColor=#d5e8d4;strokeColor=#82b366;strokeWidth=1.5;shadow=0;sketch=1;curveFitting=1;jiggle=2;" vertex="1" parent="1">
          <mxGeometry x="700" y="134" width="80" height="46" as="geometry" />
        </mxCell>
        <mxCell id="S5WVxqrFyPBs2DXpXE_U-83" value="" style="endArrow=none;dashed=1;html=1;rounded=0;entryX=0.25;entryY=1;entryDx=0;entryDy=0;" edge="1" parent="1" target="S5WVxqrFyPBs2DXpXE_U-82">
          <mxGeometry width="50" height="50" relative="1" as="geometry">
            <mxPoint x="670" y="310" as="sourcePoint" />
            <mxPoint x="690" y="340" as="targetPoint" />
          </mxGeometry>
        </mxCell>
        <mxCell id="S5WVxqrFyPBs2DXpXE_U-84" value="全部区域" style="rounded=1;whiteSpace=wrap;html=1;fillColor=#d0cee2;strokeColor=#56517e;strokeWidth=1.5;shadow=0;sketch=1;curveFitting=1;jiggle=2;" vertex="1" parent="1">
          <mxGeometry x="980" y="306" width="60" height="30" as="geometry" />
        </mxCell>
        <mxCell id="S5WVxqrFyPBs2DXpXE_U-85" value="" style="endArrow=none;dashed=1;html=1;rounded=0;entryX=0;entryY=0.5;entryDx=0;entryDy=0;exitX=1;exitY=0.5;exitDx=0;exitDy=0;" edge="1" parent="1" source="S5WVxqrFyPBs2DXpXE_U-26" target="S5WVxqrFyPBs2DXpXE_U-84">
          <mxGeometry width="50" height="50" relative="1" as="geometry">
            <mxPoint x="840" y="322.5" as="sourcePoint" />
            <mxPoint x="890" y="192.5" as="targetPoint" />
          </mxGeometry>
        </mxCell>
        <mxCell id="S5WVxqrFyPBs2DXpXE_U-86" value="海外" style="rounded=1;whiteSpace=wrap;html=1;fillColor=#d0cee2;strokeColor=#56517e;strokeWidth=1.5;shadow=0;sketch=1;curveFitting=1;jiggle=2;" vertex="1" parent="1">
          <mxGeometry x="1080" y="252.5" width="60" height="30" as="geometry" />
        </mxCell>
        <mxCell id="S5WVxqrFyPBs2DXpXE_U-87" value="中国" style="rounded=1;whiteSpace=wrap;html=1;fillColor=#d0cee2;strokeColor=#56517e;strokeWidth=1.5;shadow=0;sketch=1;curveFitting=1;jiggle=2;" vertex="1" parent="1">
          <mxGeometry x="1080" y="351.5" width="60" height="30" as="geometry" />
        </mxCell>
        <mxCell id="S5WVxqrFyPBs2DXpXE_U-88" value="" style="shape=curlyBracket;whiteSpace=wrap;html=1;rounded=1;labelPosition=left;verticalLabelPosition=middle;align=right;verticalAlign=middle;strokeWidth=1.5;" vertex="1" parent="1">
          <mxGeometry x="1148" y="240" width="20" height="55" as="geometry" />
        </mxCell>
        <mxCell id="S5WVxqrFyPBs2DXpXE_U-89" value="" style="shape=curlyBracket;whiteSpace=wrap;html=1;rounded=1;labelPosition=left;verticalLabelPosition=middle;align=right;verticalAlign=middle;strokeWidth=1.5;" vertex="1" parent="1">
          <mxGeometry x="1148" y="339.5" width="20" height="55" as="geometry" />
        </mxCell>
        <mxCell id="S5WVxqrFyPBs2DXpXE_U-90" value="[REGION#corp，code]" style="rounded=1;whiteSpace=wrap;html=1;fillColor=none;strokeColor=none;strokeWidth=1.5;sketch=1;curveFitting=1;jiggle=2;" vertex="1" parent="1">
          <mxGeometry x="1168" y="317.5" width="127" height="40" as="geometry" />
        </mxCell>
        <mxCell id="S5WVxqrFyPBs2DXpXE_U-91" value="[REGION#person，code]" style="rounded=1;whiteSpace=wrap;html=1;fillColor=none;strokeColor=none;strokeWidth=1.5;sketch=1;curveFitting=1;jiggle=2;" vertex="1" parent="1">
          <mxGeometry x="1165" y="372" width="145" height="40" as="geometry" />
        </mxCell>
        <mxCell id="S5WVxqrFyPBs2DXpXE_U-92" value="" style="shape=curlyBracket;whiteSpace=wrap;html=1;rounded=1;labelPosition=left;verticalLabelPosition=middle;align=right;verticalAlign=middle;strokeWidth=1.5;" vertex="1" parent="1">
          <mxGeometry x="680" y="295" width="20" height="60" as="geometry" />
        </mxCell>
        <mxCell id="S5WVxqrFyPBs2DXpXE_U-93" value="无兜底失败" style="rounded=1;whiteSpace=wrap;html=1;fillColor=none;strokeColor=#b85450;strokeWidth=1.5;" vertex="1" parent="1">
          <mxGeometry x="705" y="280" width="70" height="30" as="geometry" />
        </mxCell>
        <mxCell id="S5WVxqrFyPBs2DXpXE_U-94" value="兜底值" style="rounded=1;whiteSpace=wrap;html=1;fillColor=none;strokeColor=#b85450;strokeWidth=1.5;" vertex="1" parent="1">
          <mxGeometry x="705" y="340" width="70" height="30" as="geometry" />
        </mxCell>
      </root>
    </mxGraphModel>
  </diagram>
</mxfile>
